<?xml version="1.0" encoding="utf-8"?>
<svg version="1.1" id="LM_logo" xmlns="http://www.w3.org/2000/svg" xmlns:xlink="http://www.w3.org/1999/xlink" x="0px" y="0px"
	 width="793.1px" height="201.7px" viewBox="0 0 793.1 201.7" enable-background="new 0 0 793.1 201.7" xml:space="preserve">
<g>
	<path fill="#616265" d="M178.3,111.8c0,5,2.3,6.6,9.7,6.6s11-2.3,15.8-12.3h1.7l-1.7,15.8h-47v-1.7c7.1-1.7,7.7-3.3,7.7-9.9V71
		c0-5.6-1.4-7.1-7.7-8.5v-1.7h29v1.7c-6.3,1.6-7.7,2.8-7.7,8.2L178.3,111.8L178.3,111.8z"/>
	<path fill="#616265" d="M225.3,113.4c0,4,1.9,6.3,6.4,6.6v1.7h-24.9V120c5.2-1,6.6-2.4,6.6-7.5V91.7c0-4.9-1.4-6.3-7.1-7.3v-1.7
		l17.2-1.6h1.7V113.4z M219.4,56.5c3.8,0,6.8,3.1,6.8,6.8c0,3.8-3.1,6.8-6.8,6.8s-6.8-3.1-6.8-6.8C212.6,59.3,215.5,56.5,219.4,56.5
		"/>
	<path fill="#616265" d="M251.2,91c4-3.8,6.3-4.7,9.2-4.7c7.1,0,11.7,6.6,11.7,16.3c0,12.9-5.9,18.1-14.6,18.1
		c-4.7,0-6.3-1.9-6.3-6.6V91L251.2,91z M251.2,56.5h-1.7l-16.2,1v1.7c3.8,0.7,5.9,2.4,5.9,5.9v56.7c5.9,1,11.8,1.6,19.1,1.6
		c19.1,0,26.6-10.1,26.6-22.3c0-11.5-8.2-20.5-18.8-20.5c-5.7,0-10.4,2.3-15.3,7.3V56.5H251.2z"/>
	<path fill="#616265" d="M302.5,96.2c0.2-7.5,3.5-12.5,8.3-12.5c4.9,0,8.3,5.2,8.9,12.5H302.5z M332.2,98.6
		c-1.6-10.8-9.6-17.9-20.7-17.9c-12.3,0-22.1,9.2-22.1,21.6c0,12.2,9.2,20.9,21.6,20.9c9.6,0,17.6-5.2,21.2-13.7h-1.7
		c-3.8,5.7-8.3,8.5-14.1,8.5c-7.3,0-14.6-6.6-14.1-19.7C302.3,98.6,332.2,98.6,332.2,98.6z"/>
	<path fill="#616265" d="M370.1,96.2c-3.5-3.3-6.3-5-8.9-5c-3.5,0-5.7,1.6-8.9,5.7v15.8c0,4.7,0.9,6.3,6.6,7.3v1.7h-25V120
		c5.2-1.4,6.6-2.8,6.6-7.3V91.8c0-5-2.3-7.3-7.3-7.7v-1.7l17.2-1.6h1.7v12.5h0.2c4-8.5,8.2-12.5,13-12.5c2.6,0,5,1,7.1,3.3
		L370.1,96.2z"/>
	<path fill="#616265" d="M436.7,82.4v1.7c5,1,6.3,4.2,2.6,12.5l-5.4,12.7l-8.3-17.2c-2.4-5-2.4-7.3,1.9-8v-1.7h-23h-0.7h-11.5V67.1
		h-1.9c-5.6,7.1-12.2,13.4-17,16.5v1.9h7.1v25.6c0,9,5.9,12.5,13.4,12.5c5.9,0,9.7-1.9,12.5-7.1l-1.4-1c-1.9,2.3-3.8,3.1-5.7,3.1
		c-5.6,0-7.3-3.8-7.3-10.1v-23h10.6c5.7,0,7.5,1.9,9.9,7.5l14.3,30.4c-4.9,13-9,18.3-16.3,18.3c-1.6,0-2.8,0-5.2-0.9l-2.4,11.8
		c1.6,0.2,2.3,0.2,3.3,0.2c8.2,0,12.5-3.5,16.7-13l19.8-45.4c3.3-7.3,4.3-8.9,9.6-10.1v-1.7h-15.7v-0.2H436.7z"/>
	<path fill="#616265" d="M551.4,111c0.7,5.2,3.3,8.3,9.2,9.6v1.7h-30.3v-1.7c6.6-1.7,8-5.6,6.6-13.4l-5-35.1h-0.2l-19.8,50.3h-2.3
		L490,72h-0.2l-5.2,36c-1,7.1,0.2,11.8,7.3,12.3v1.7h-22.4v-1.7c6.6-0.2,9.6-4,10.8-13.4l6.3-40c-2.4-2.4-5.7-4.2-8.9-4.2V61h22.1
		l16.2,40.3L532.2,61h20.7v1.7c-6.3,1-7.7,4.3-6.8,9.9L551.4,111z"/>
	<path fill="#616265" d="M565.4,91.3c0-4.3-1.6-5.9-6.3-6.8v-1.7l16.3-1.6h1.7v29c0,4.7,3.1,6.8,7.3,6.8c4,0,6.4-1.7,9.9-7.1V90.3
		c0-3.3-2.3-5-6.3-5.9v-1.7l16.3-1.6h1.7v31.5c0,5.2,1,6.4,6.4,8v1.7l-18.1,1.6v-9.7H594c-4.3,6.6-9.2,9.7-15.7,9.7
		c-8.2,0-13-4.3-13-12.2V91.3H565.4z"/>
	<path fill="#616265" d="M621.6,86.1h-7.1v-1.9c4.9-3.1,11.5-9.2,17-16.5h1.9V83h13v3.1h-13v22.8c0,6.4,1.7,10.1,7.3,10.1
		c1.9,0,4-0.9,5.7-3.1l1.4,1c-2.8,4.9-6.8,7.1-12.5,7.1c-7.5,0-13.4-3.5-13.4-12.5L621.6,86.1L621.6,86.1z"/>
	<path fill="#616265" d="M654.1,91.3c0-4.3-1.6-5.9-6.3-6.8v-1.7l16.3-1.6h1.7v29c0,4.7,3.1,6.8,7.3,6.8c4,0,6.4-1.7,9.9-7.1V90.3
		c0-3.3-1.9-5-6.3-5.9v-1.7l16.3-1.6h1.7v31.5c0,5.2,1,6.4,6.3,8v1.7l-18.1,1.6v-9.7H683c-4.3,6.6-9.2,9.7-15.7,9.7
		c-8.2,0-13-4.3-13-12.2L654.1,91.3L654.1,91.3z"/>
	<path fill="#616265" d="M728.2,115.3c-2.6,2.6-5,4.2-7.5,4.2c-3.3,0-5.6-2.8-5.6-7.1c0-5.2,3.1-7.7,12.9-11.8v14.8H728.2z M740,96
		c0-10.8-8.9-14.8-17.4-14.8c-9.2,0-15.7,4.9-17.6,13.4h1.6c2.4-4.3,6.4-6.6,11.8-6.6c7.1,0,9.9,3.3,9.9,10.4
		c-9.7,3.5-25.4,4.3-25.4,15c0,5.7,5.2,10.4,11.8,10.4c4.9,0,8.3-1,12.3-4.7l0.9-0.9c1.9,4,4.7,5.6,9.6,5.6c5.7,0,9.2-2.6,9.7-7.7
		h-1.7c-0.5,2.4-1.6,3.8-3.1,3.8c-1.7,0-2.4-1.6-2.4-5.2L740,96L740,96z"/>
	<path fill="#616265" d="M755.5,67.5c0-5.6-1.7-7.5-7.5-8v-1.7l17.4-1h1.7v56c0,5.2,1,6.4,7.1,8v1.7H748v-1.7c5.7-0.9,7.5-2.8,7.5-8
		V67.5z"/>
	<path fill="#002663" d="M142.8,80.3c-0.5-0.7-1.6-0.2-1.6-0.2L123,87c-1.4-3.5-3.1-6.8-4.9-9.7l5.9-16.3c0,0,0.7-1.6,0-1.9
		s-1.7,0.7-1.7,0.7l-10.8,8.9c-4.2-4.3-9.2-8.2-14.8-10.8c-2.3-0.9-4.3-1.7-6.6-2.4l-3.3-12.9c0,0-0.2-1.4-1-1.4c-0.9,0-1,1.4-1,1.4
		l-2.3,11.5c-2.4-0.2-4.9-0.5-7.3-0.5c-8.2,0-15.3,1.6-21.6,4.3c-2.6,1-5.2,2.6-7.5,4.3c-0.5,0.2-0.7,0.7-1,0.9
		c-2.3-5.7-4-10.4-4.3-11.8c1.4-1,3.8-5.2,4.3-8c0.9-4,0.7-5.7-0.2-8.5C44.2,32.3,43,30.4,43,29c0-1,0.7-1.7,1-2.3
		c-0.2-1.4-1-1.9-2.3-2.3c-1.2-0.3-1.7,0.2-2.6,0.2c-0.2-0.5-0.7-0.5-0.5-1.7c0.5-2.3,4.9-3.3,8.2-4.7c4.3-1.7,6.8-4.9,7.1-9.9
		c0-3.8-1.9-6.4-4.7-7.7c-0.5,1.6-2.6,3.5-4.2,4.3s-3.5,1-5,0.9c0.2-2.6-0.9-5-2.8-5.9c-0.7,1-3.1,2.8-6.6,2.6
		c-3.5,0-3.8-0.9-8.9-0.9c-7.3,0-13.2,4.3-13.9,10.8c-0.5,4.2,1,7.7,2.4,9.6c-0.9,0.7-3.1,2.6-3.3,3.3c-0.5-0.7-1.9-1.4-3.8-0.2
		c0.5,0.9,0.5,1.9,0.2,3.1S0.6,34.6,0,38.8c-0.5,7.1,3.5,11.7,6.8,13c-0.7,1-0.9,2.4-0.5,3.3c0.5,0.7,1,1.4,2.4,1.4
		c-0.9,0.9-1,2.3-0.7,3.5c0.7,1.6,2.4,3.8,3.8,3.8c0,1.4,0.5,4.2,0.9,5.6c-0.5,0.9-1,1.7-0.9,3.5c0,1.7,1.4,3.3,2.8,3.8
		c0.5,0.9,0.7,1.9,1,2.4c0.5,0.7,0.9,1.4,2.3,1.9c1,0.7,2.4,1.4,4,1.4c1.6,0,2.8,0,3.5-0.2c0,0.5,0.2,4.3,0.5,8.9
		c-3.8,10.6-5.7,22.8-5.7,35.7l0,0c0,23.3,6.6,44.3,19.5,57.7c0,0,0.7,0.9,2.8,2.3c0,0,4-6.8,10.1-14.6c1.6-1.9,3.3-4,5.2-5.7
		c3.1-2.6,5.9-4.9,8.5-7.1c8-5.2,17-9.6,25.4-11.3c-9.7,5-15,7.7-24,15.5c-5.7,4.9-14.8,13.7-21.2,25.4c1.4,1,3.1,1.9,5,2.3
		c1.4-1.6,8.2-13.9,18.6-24c21.2-19.7,45.9-24.3,59-24c0.7-5.2,1-11,1-16.7c0-9.6-0.9-18.3-2.8-26.6l15.5-17.2
		C142.1,82.1,143.2,80.9,142.8,80.3"/>
	<path fill="#FFFFFF" d="M27.4,72.5C26.5,72,24,70.8,22.1,71c-1.9,0-3.8,0.5-5.2,1.6c-0.7-0.5-0.9-1.4-0.5-2.4c0.5-1,1-1,1-1
		l-0.7-9.9c0,0,2.8-1.9,3.5-2.3c0.7-0.2,1-0.9,1-1.6c1.4,0.9,3.1,2.6,4,4c0.9,1.4,1.4,2.6,1.6,4.2c0,1.6,0,3.5-0.2,5.6
		c0.7,0.5,1,0.9,1.4,1.7C28,71.5,27.7,71.8,27.4,72.5"/>
	<path fill="#FFFFFF" d="M116.9,103c0-1.9-2.4-7.1-3.8-8.2l23.3-10.4L116.9,103z"/>
	<path fill="#FFFFFF" d="M53.1,64.3l19.8,17.9c-1.9,1-4.9,4-5.6,6.4L53.1,64.3z"/>
	<path fill="#FFFFFF" d="M64.4,100c-0.7,1-0.9,1.7-1,2.8c-0.2,1.4,0,1.9,0,3.1l-5.9-4.2c0-1.4-0.2-3.8-0.5-4.9c0-0.2,0-0.5,0-0.5
		L64.4,100z"/>
	<path fill="#FFFFFF" d="M31.2,101.7c-0.5-0.7-2.3-37-2.3-38.4l1.9-1.4v-0.5c-1.4,0-3.1-0.7-3.5-1.6l-0.5-11.3
		c-1.9-0.2-4-0.9-4.7-1.6c-0.9-0.9-1.7-1.9-0.7-4.2c0.9,0.7,3.8,1.6,6.4,1.6c0.5,0,1.6,1,2.3,1.4c0.7,0.3,1.9,0.9,2.4,1
		c0.5,0.2,0.9,1.4,0.9,1.7C33.6,49,51.7,96,52,96.3s1.4,8.3,1.4,9c0,0.7,2.8,6.8,3.3,7.5c-2.4,0-6.4,1.4-9.6,4.3
		c-3.1,3.1-5.9,9.9-6.6,13C40.4,129.6,31.7,102.4,31.2,101.7"/>
	<path fill="#FFFFFF" d="M54.1,146.4c-0.9,7.3-2.4,13.4-5,17.9c-1.7,2.8-6.4,8.9-8.2,10.8c1.7-3.5,3.1-12.3,3.1-19
		c0-4.3-1.4-14.1-0.2-20.5c1.4-6.8,3.3-10.8,7.7-15c2.4-2.3,7.1-4.9,14.1-3.1l5.6,10.4c-2.8-0.7-6.8,0-9.6,1.9
		C56.6,134.1,55,139.1,54.1,146.4"/>
	<path fill="#FFFFFF" d="M54.8,160.9c1.4-3.1,3.1-11.7,3.5-14.6c0.7-3.8,1.4-9,5.7-12.9c2.3-1.7,5.7-1.9,7.3-1.6l6.3,12.9
		c0.7,1.4,2.4,1.7,3.8,1.7C75.4,148.2,60.2,155.3,54.8,160.9"/>
	<path fill="#FFFFFF" d="M108.2,120c-1,1.6-0.7,3.1,0,4.2c0.7,1,4,7.3,4,7.3c1,2.8,1.7,4.2,2.8,5.9c1.7,0,3.8,0,5.7,0
		c-2.3-4.9-7.3-14.3-7.3-14.3l-0.2-7.7C111.7,116.2,109.3,118.3,108.2,120"/>
	<path fill="#FFFFFF" d="M81.4,79.1c2.4-0.5,8.2,0,9.9,0.9l-5.7-32.2L81.4,79.1z"/>
	<path fill="#FFFFFF" d="M33.6,49.2c-0.2-0.5-0.5-1.6-0.9-1.7c-0.7-0.2-1.7-0.9-2.4-1C29.6,46.3,28.6,45,28,45
		c-2.4,0-5.2-0.9-6.4-1.6c-1,1.9-0.2,3.1,0.7,4.2c0.7,0.7,2.8,1.4,4.7,1.6l0.5,11.3c0.5,0.9,2.3,1.4,3.5,1.4v0.5l-1.9,1.4
		c0,1.4,1.7,37.7,2.3,38.4c0.5,0.7,9.2,27.8,9.6,29.4c0.7-3.1,3.5-9.9,6.6-13c3.3-3.1,7.1-4.7,9.6-4.3c-0.5-0.7-3.3-6.8-3.3-7.5
		s-1-8.3-1.4-9C51.7,96.7,33.6,49.6,33.6,49.2"/>
	<path fill="#FFFFFF" d="M22,40.3c5,0,7.5,2.3,8.9,3.3c0.2-1.7-0.2-3.3-1.7-4.7c-1.4-1-3.8-1.9-7.3-1.9c-2.4,0-4.9,0.7-6.4,1.9
		c-1.4,1-1.6,2.4-1.4,4.3C14.7,41.9,17.8,40.3,22,40.3"/>
	<path fill="#FFFFFF" d="M12.9,13.4c-0.2,1.9,0.5,4,1.4,5.2c0.5,0.7,1.7,1.9,2.6,1.9c1.4,0,2.4-2.4,5.6-2.4c1.9,0,3.3,2.8,4.9,2.8
		c1.4,0,1.9-1,3.3-1.4c1-0.2,1.6,0.5,2.3,1c0.5-1,1-1.7,2.8-3.1c1.9-1.6,8.9-2.8,11.8-5.6c1.6-1.4,1.7-3.8,1.4-5.2
		c-1,1.6-4.2,3.3-7.3,3.3c-1.6,0-5-0.7-6.4-1.4c0.7-1,0.9-2.4,0.2-3.5c-0.9,0.7-5.2,1-6.8,1c-1.6,0-4.9-0.7-7.3-0.5
		C15.5,6.4,13.1,10.4,12.9,13.4"/>
	<path fill="#FFFFFF" d="M22.3,30.4c11.8,0.2,17.2,5.7,17.4,10.1c0.7-1.4,0.5-2.6,0.5-4.2c0-1-1.7-4.7-1.9-5.7c0-1,0.2-1.9,0.5-2.8
		c-0.7,0.2-3.3,1-4.3,0.2c-1-0.9-0.5-3.3-1.9-4c-1.6-0.7-4,1.4-5.7,1c-1.6-0.2-2.8-2.4-4.7-2.4c-1.7,0-2.4,1.9-4.3,2.4
		c-1.6,0.5-3.5-0.7-4.3-0.5c-1,0-1.6,0.9-1.9,1.7c-0.5,0.9-0.9,1.4-1.9,1.7c-0.9,0.2-2.4-0.7-3.1-0.5c0.5,0.5,0.9,2.6,0.2,4
		C6,33,4.7,34.8,4.7,36.7c-0.2,1.7,0.5,2.4,0.9,3.8C4.9,34.6,12,30.4,22.3,30.4"/>
	<path fill="#FFFFFF" d="M14.8,53.4c-0.9,0.2-2.6,1.6-3.3,2.8c0.2,0.9,1.4,3.1,2.3,3.5c0.2-0.9,1.4-2.6,1.7-3.1
		c0.7-0.5,1.6-0.9,1.9-1c0.7-0.2,0.9-0.7,0.9-1.4c0-0.7,0-1-0.5-1.7c0.7,0,1.7,0,1.9-0.5c0.5-0.5,0.7-1,0.7-1.7s-0.2-0.9-0.9-0.9
		c-0.7,0-2.6-0.2-3.5,0c0,0,1.6-0.9,1.9-1c0.5-0.2,0.7-0.7,0.7-1c0-0.5,0-1.4-0.2-2.3c-2.3,0-6.3,1.9-7.3,3.1l0.9,1.9h-1.6
		c-0.2,1,0,2.6,0.5,3.5C12.2,53.4,13.8,53.2,14.8,53.4"/>
	<path fill="#FFFFFF" d="M111.9,100.3c-0.2-1.6-4-5.7-10.1-10.6c-4.9-3.8-11.8-7.3-17.9-7.3c-9.9,0-13.9,6.8-14.8,10.4
		c-0.5,2.3-0.5,4.3,0,5.7c-1.6,1.4-2.3,2.4-2.4,4c-0.2,1,0,2.6,1,3.8c0-1.6,0.9-3.1,1.7-4.2c0.9-1.4,2.4-1.7,3.8-2.6l0.2,2.6
		c-1.4,0.7-2.8,2.3-2.8,3.1v4.3l3.3-1.9l0.7,1.4l-1.4,8l1.9-0.5l3.5,1.4l-3.3,2.8v1c0,0,0.5-0.7,1.7-0.7c1,0,4.2,1.4,4.2,1.4
		l-0.2,0.7h-1.4H75c-0.2,0.9,0.5,1.4,0.9,1.7c0.9-0.2,1.6-0.7,1.9-0.7c0.3,0,1.6,0.2,2.4,0.5l-1,1.6c0,0-0.7,0.5-1.6,0.2
		c-0.7-0.2-1,0.7-1,1.4s0.5,2.4,0.5,2.4c0.5,2.4,3.1,1.9,3.5,1.9c1.6-0.2,7.1-1.9,7.1-1.9l-5,7.3l2.3,7.7c3.3-1.4,13.4-5,24.5-6.8
		c-1-1.9-1.4-2.8-2.8-5.7l-5.7-13l0.9-1.9c1.4,0.5,3.1-0.5,4.3-1.6c1.2-1,2.6-2.8,3.3-4c-0.9-0.5-1.6-0.5-2.3,0.2
		c-0.7,0.5-1,1.4-2.3,0.9c-1-0.5-0.5-1.6-0.5-2.6c0.2-1-1-1-1.9-0.2c-0.9,0.9-2.8,0.5-4-0.9c-1.4-1.4-7.3-6.3-9.2-7.5
		c-3.1-1.7-7.3-2.3-10.1-1.7c-1.7,0.2-3.1,1-3.8,0.7l-2.3-3.5l0.5-0.2c0.9,0.5,1.6,0.9,2.6,0.7c1-0.5,4.2-1,7.3-1
		c4.3,0,9.9,1.6,12.3,2.6c0,2.8,5.9,6.6,8.5,7.1c2.3,0.2,3.5-0.2,4.9-1l-5.7-5l3.1-3.8c0,0,4.9,4.7,5.6,5.6
		C112.4,101.9,112,101,111.9,100.3 M77.3,106.1c0,0,2.4-1.4,4.9-1.9c3.5-0.7,7.3,1.4,9.9,3.5l-0.5,0.9l-4,0.9
		c-0.7-0.7-2.3-0.9-3.8-0.9c-1.4,0-2.4,0.7-2.4,0.7l0.7,1.4l-1.7,0.5c-0.9-1-1.9-2.3-3.1-2.6v-2.4H77.3z M71.5,97.2
		c-1-3.3,1.7-6.8,2.8-8l1.9,4.3C74.8,94.4,72.6,96.2,71.5,97.2 M89.3,93.6c-1.7-1.4-7.7-1-10.1-0.5l-1.7-5.2c1.4-1,4-1.7,6.4-1.7
		c2.4,0,4.9,0.7,6.8,1.6L89.3,93.6z M100.9,98.8c-2.4-1.6-7.3-4-8.9-4.3l2.3-5.6c1.7,0.9,8.3,4.9,9.6,5.9L100.9,98.8z"/>
	<path fill="#FFFFFF" d="M100.2,84c2.3,0.9,6.8,4.9,8.2,5.7l11.8-25.4L100.2,84z"/>
	<path fill="#616265" d="M786.3,108.3c3.5,0,6.8,2.8,6.8,7.1s-3.3,7.1-6.8,7.1s-6.8-2.8-6.8-7.1S782.7,108.3,786.3,108.3
		 M786.3,120.9c2.8,0,5.2-2.3,5.2-5.6c0-3.3-2.4-5.6-5.2-5.6s-5.2,2.3-5.2,5.6C781.1,118.6,783.4,120.9,786.3,120.9 M783.5,111.7
		h2.8c1.9,0,2.8,0.7,2.8,2.3c0,1.4-0.9,1.9-1.9,1.9l1.9,3.3h-1.6l-1.9-3.3h-1v3.5h-1.4v-7.7H783.5z M785.1,115h1.4
		c0.9,0,1.6-0.2,1.6-1c0-0.9-0.9-1-1.6-1h-1.4V115z"/>
	<rect x="158" y="143.8" fill="#616265" width="239.3" height="2.4"/>
	<rect x="430.1" y="143.8" fill="#616265" width="345.2" height="2.4"/>
	<g>
		<path fill="#616265" d="M295.9,167.5h6.3v33.4h-6.3V167.5z"/>
		<path fill="#616265" d="M320.6,167.5h5.7l13.9,23.7l0,0v-23.7h5.7v33.4h-5.6l-13.9-23.7l0,0v23.7h-5.9
			C320.6,200.9,320.6,167.5,320.6,167.5z"/>
		<path fill="#616265" d="M365.6,190.6c2.4,3.5,5.9,5,10.1,5c3.1,0,7.1-1,7.1-4.2c0-2.6-2.4-3.3-6.8-4.3l-3.8-0.9
			c-5.2-1.4-9.9-3.1-9.9-9.2c0-7.1,6.6-10.4,12.9-10.4c5.7,0,10.4,2.3,13.9,6.6l-5.2,4c-1.6-3.1-4.7-4.9-8.9-4.9
			c-3.5,0-6.4,1.4-6.4,3.8c0,2.8,3.1,3.3,6.8,4.2l4,0.9c4.9,1,9.7,3.1,9.7,9.6c0,8.2-7.7,11-14.6,11c-5.6,0-11.3-2.4-14.3-7.1
			L365.6,190.6z"/>
		<path fill="#616265" d="M432.4,190.4c0,6.8-5.2,11-13.4,11c-8,0-13.4-4.2-13.4-11v-23h6.3v21.4c0,4,1.7,6.6,7.1,6.6
			s7.1-2.6,7.1-6.6v-21.4h6.3V190.4C432,190.4,432.4,190.4,432.4,190.4z"/>
		<path fill="#616265" d="M450.3,167.5h13.9c7.1,0,11.3,4.2,11.3,10.1c0,7.5-5,9.2-6.6,9.9l7.5,13.4h-7.3l-6.4-12.3h-5.9v12.3h-6.3
			v-33.6h-0.2V167.5z M456.4,182.8h6.8c3.1,0,5.6-1.7,5.6-5c0-3.1-1.9-5-6.4-5h-5.9V182.8L456.4,182.8z"/>
		<path fill="#616265" d="M499.5,167.5h7.3l11,33.4h-6.6l-1.9-6.4h-12.7l-1.9,6.4H488L499.5,167.5z M503.2,173.4L503.2,173.4
			l-4.7,15.3h9.2L503.2,173.4z"/>
		<path fill="#616265" d="M532,167.5h5.7l13.9,23.7l0,0v-23.7h5.7v33.4h-5.7l-13.9-23.7l0,0v23.7H532V167.5z"/>
		<path fill="#616265" d="M596.9,178.6c-0.5-3.8-3.5-6.3-7.3-6.3c-6.6,0-9.6,5.9-9.6,11.7c0,5.7,2.6,11.7,9.6,11.7
			c4.3,0,6.8-2.8,8-6.8l5.7,2.6c-2.6,6.6-7.1,9.9-13.7,9.9c-10.6,0-15.8-8.2-15.8-17.4c0-9.6,5.9-17.4,15.8-17.4
			c6.6,0,11.7,3.5,13.4,10.4L596.9,178.6z"/>
		<path fill="#616265" d="M616.7,167.5h23.7v5.7h-17.2v7.5H639v5.6h-15.8v8.5h18.6v5.7h-24.7v-33L616.7,167.5L616.7,167.5z"/>
	</g>
</g>
</svg>
